<svg width="216" height="55" viewBox="0 0 216 55" fill="none" xmlns="http://www.w3.org/2000/svg">
<path fill-rule="evenodd" clip-rule="evenodd" d="M26.2565 43.5565C26.5373 43.5306 26.8197 43.4856 27.0931 43.417C26.7202 43.5177 26.3365 43.5734 25.9467 43.5795L25.8757 43.5831C25.7865 43.5831 25.704 43.5737 25.6217 43.5737C26.418 43.5271 27.1932 43.2655 27.8657 42.8542C28.5791 42.4152 29.1693 41.7984 29.6155 41.1164L32.2641 36.8369L35.5006 31.6734H35.5002L32.2631 36.833L29.6165 41.1126C29.168 41.8029 28.5768 42.4136 27.863 42.8533C27.1942 43.2664 26.4184 43.5255 25.6187 43.5734C21.291 43.3493 18.8773 37.4479 21.5179 33.2881L22.2832 32.083L22.736 32.0687L22.2852 32.0826L31.7994 17.094L40.7481 16.9467L31.8 17.0924L33.8085 13.9289C34.8122 12.3475 36.3877 11.4169 38.0606 11.4169H49.0162L49.0129 11.4221L49.0139 11.4208L48.9571 11.5102L42.2097 22.1383L34.5265 34.2394L32.7925 36.9768L32.7374 37.0609L32.3642 37.6457L30.2299 41.007C30.1612 41.1151 30.0898 41.2207 30.0162 41.323L29.9927 41.3593C29.9894 41.3638 29.9845 41.3687 29.9792 41.3732L29.9719 41.3832L29.9785 41.3739C29.9739 41.3784 29.9686 41.3826 29.9653 41.3875C29.8557 41.5461 29.7321 41.6863 29.6086 41.8265C29.1624 42.3122 28.6204 42.7234 28.051 43.0411C28.047 43.0411 28.0454 43.044 28.0447 43.0466L28.047 43.0456L28.0477 43.045C28.6197 42.7238 29.1627 42.3148 29.6076 41.8301C29.1482 42.3407 28.6197 42.7513 28.047 43.0456L28.0447 43.0466L28.044 43.0505C27.7352 43.2 27.4198 43.3309 27.0902 43.415C26.8167 43.4856 26.5363 43.53 26.2565 43.5565ZM37.5232 29.5091L36.4458 31.2097L38.0054 28.7508L37.5232 29.5091ZM44.0649 19.2074L45.5485 16.8683L45.1987 16.8777L46.0426 15.5883L49.0129 11.4221L49.0162 11.4169L46.0416 15.5848L45.1974 16.8735L45.1968 16.8744L44.1861 18.4163L45.1974 16.878L45.5482 16.8689L43.947 19.3926L44.0649 19.2074ZM48.9534 11.5154L46.3993 15.5323L44.3535 18.7534L46.402 15.5346L48.9534 11.5154ZM41.9028 22.6114L40.4641 24.8763L40.2412 25.2286L41.9028 22.6114Z" fill="#F55F02"/>
<path fill-rule="evenodd" clip-rule="evenodd" d="M58.5452 43.5802C56.8313 43.5802 55.2172 42.6266 54.189 41.007L42.2095 22.1383L46.2638 15.7522L46.2674 15.746L49.0164 11.4169L62.901 33.2881C65.5935 37.5285 63.0321 43.5802 58.5452 43.5802Z" fill="#09357D"/>
<path fill-rule="evenodd" clip-rule="evenodd" d="M38.1255 43.5802C36.4116 43.5802 34.7979 42.6266 33.7697 41.007L31.9997 38.2198L36.2187 31.5749L38.1661 28.5436L38.8138 27.5104L42.482 33.2881C45.1741 37.5285 42.6131 43.5802 38.1255 43.5802ZM25.1932 27.4987L21.7906 22.1383L28.5971 11.4169L31.9997 16.7773L25.1932 27.4987Z" fill="#09357D"/>
<path fill-rule="evenodd" clip-rule="evenodd" d="M5.83779 43.5565C6.11821 43.5306 6.40092 43.4856 6.67407 43.417C6.30118 43.5177 5.91739 43.5734 5.52766 43.5795L5.45664 43.5831C5.36746 43.5831 5.28523 43.5737 5.20298 43.5737C5.99897 43.5271 6.77415 43.2655 7.44661 42.8542C8.16036 42.4152 8.75058 41.7984 9.19647 41.1164L11.845 36.8369L15.0815 31.6734H15.0812L11.8444 36.833L9.19746 41.1126C8.74893 41.8029 8.15771 42.4136 7.4443 42.8533C6.77514 43.2664 5.9993 43.5255 5.19968 43.5734C0.871946 43.3493 -1.54178 37.4479 1.09886 33.2881L1.86412 32.083L2.31695 32.0687L1.86611 32.0826L11.3803 17.094L20.3291 16.9467L11.381 17.0924L13.3894 13.9289C14.3932 12.3475 15.9686 11.4169 17.6419 11.4169H28.5971L28.5938 11.4221L28.5948 11.4208L28.538 11.5102L21.7906 22.1383L14.1078 34.2394L12.3735 36.9768L12.3186 37.0609L11.9451 37.6457L9.81113 41.007C9.7421 41.1151 9.67075 41.2207 9.5971 41.323L9.57366 41.3593C9.57035 41.3638 9.5654 41.3687 9.56044 41.3732L9.55284 41.3832L9.55978 41.3739C9.55482 41.3784 9.54987 41.3826 9.54657 41.3875C9.43659 41.5461 9.31305 41.6863 9.18952 41.8265C8.74364 42.3122 8.20132 42.7234 7.63191 43.0411C7.62827 43.0411 7.62662 43.044 7.62596 43.0466L7.62794 43.0456L7.62893 43.045C8.20066 42.7238 8.74397 42.3148 9.18854 41.8301C8.72944 42.3407 8.20065 42.7513 7.62794 43.0456L7.62596 43.0466L7.62529 43.0505C7.31648 43.2 7.00072 43.3309 6.67143 43.415C6.39762 43.4856 6.11754 43.53 5.83779 43.5565ZM17.1045 29.5091L16.0271 31.2097L17.5864 28.7508L17.1045 29.5091ZM23.6461 19.2074L25.1294 16.8683L24.7797 16.8777L25.6236 15.5883L28.5938 11.4221L28.5971 11.4169L25.6229 15.5848L24.7783 16.8735L24.778 16.8744L23.767 18.4163L24.7783 16.878L25.1291 16.8689L23.5279 19.3926L23.6461 19.2074ZM28.5347 11.5154L25.9803 15.5323L23.9348 18.7534L25.9829 15.5346L28.5347 11.5154ZM21.4838 22.6114L20.045 24.8763L19.8221 25.2286L21.4838 22.6114Z" fill="#124699"/>
<path d="M76.6431 8.08954H84.3986L88.3206 24.1318H88.6242L97.8599 8.08954H105.615L101.314 34H95.2157L97.8599 18.0843H97.6448L88.814 33.8355H84.9299L81.3369 17.9957H81.1218L78.4397 34H72.3416L76.6431 8.08954ZM107.814 41.2873C107.071 41.2873 106.38 41.2283 105.739 41.1102C105.106 41.0005 104.566 40.8529 104.119 40.6674L106.245 36.1761C106.81 36.3785 107.329 36.4924 107.801 36.5177C108.282 36.5514 108.712 36.4713 109.091 36.2773C109.479 36.0917 109.817 35.7586 110.103 35.2778L110.458 34.6832L106.903 14.5672H113.152L114.418 28.446H114.62L120.566 14.5672H127.31L116.467 35.8598C115.919 36.9225 115.257 37.863 114.481 38.6811C113.705 39.4992 112.769 40.136 111.672 40.5915C110.584 41.0554 109.298 41.2873 107.814 41.2873ZM152.682 17.477H146.432C146.466 16.8191 146.403 16.2329 146.243 15.7184C146.082 15.1955 145.829 14.7485 145.484 14.3774C145.138 13.9978 144.708 13.7111 144.193 13.5171C143.679 13.3231 143.08 13.2261 142.397 13.2261C141.089 13.2261 139.904 13.5508 138.842 14.2003C137.779 14.8497 136.889 15.7859 136.172 17.0089C135.455 18.2319 134.953 19.6995 134.667 21.4117C134.405 23.0648 134.409 24.4438 134.679 25.5487C134.957 26.6536 135.472 27.4844 136.223 28.0411C136.973 28.5893 137.926 28.8635 139.082 28.8635C139.833 28.8635 140.528 28.7749 141.169 28.5978C141.819 28.4122 142.405 28.1465 142.928 27.8007C143.451 27.4549 143.902 27.0374 144.282 26.5482C144.67 26.0506 144.969 25.4981 145.18 24.8909H151.48C151.168 26.0295 150.654 27.1639 149.937 28.2941C149.228 29.4159 148.334 30.4323 147.255 31.3432C146.175 32.2541 144.923 32.9837 143.497 33.5319C142.072 34.0801 140.486 34.3542 138.74 34.3542C136.353 34.3542 134.295 33.8187 132.566 32.7475C130.846 31.6763 129.602 30.1244 128.834 28.0917C128.075 26.0506 127.932 23.5793 128.404 20.6779C128.868 17.8692 129.783 15.5034 131.149 13.5803C132.524 11.6573 134.194 10.2024 136.159 9.21553C138.133 8.2287 140.237 7.73529 142.473 7.73529C144.092 7.73529 145.547 7.95458 146.837 8.39317C148.136 8.82333 149.237 9.45591 150.139 10.2909C151.042 11.1175 151.712 12.1338 152.151 13.3399C152.598 14.5461 152.775 15.9251 152.682 17.477ZM167.475 25.612L169.322 14.5672H175.496L172.258 34H166.362L166.957 30.3816H166.754C166.155 31.5709 165.274 32.5155 164.11 33.2156C162.946 33.9072 161.634 34.253 160.175 34.253C158.851 34.253 157.738 33.9494 156.835 33.3421C155.933 32.7348 155.292 31.8872 154.912 30.7991C154.541 29.7027 154.474 28.4206 154.71 26.9531L156.785 14.5672H162.971L161.112 25.7385C160.951 26.7928 161.09 27.6236 161.529 28.2309C161.976 28.8381 162.676 29.1418 163.629 29.1418C164.245 29.1418 164.823 29.0068 165.362 28.7369C165.902 28.4586 166.358 28.058 166.729 27.535C167.108 27.0037 167.357 26.3627 167.475 25.612ZM176.195 34L179.434 14.5672H185.444L184.849 18.1096H185.051C185.617 16.8276 186.355 15.8745 187.266 15.2503C188.176 14.6178 189.163 14.3015 190.226 14.3015C190.513 14.3015 190.8 14.3226 191.086 14.3647C191.381 14.3985 191.66 14.4491 191.921 14.5165L191.01 19.9061C190.724 19.7965 190.348 19.7163 189.884 19.6657C189.421 19.6067 188.999 19.5772 188.619 19.5772C187.885 19.5772 187.202 19.7417 186.57 20.0706C185.946 20.3911 185.414 20.8423 184.976 21.4243C184.545 21.9979 184.263 22.6726 184.128 23.4486L182.382 34H176.195ZM195.888 34.3289C194.656 34.3289 193.593 34.1223 192.699 33.709C191.814 33.2873 191.164 32.6505 190.751 31.7986C190.346 30.9467 190.249 29.884 190.46 28.6104C190.646 27.5308 190.987 26.6241 191.485 25.8903C191.991 25.1481 192.611 24.545 193.345 24.0812C194.087 23.6173 194.913 23.263 195.824 23.0184C196.735 22.7738 197.688 22.6093 198.684 22.525C199.797 22.4238 200.699 22.3141 201.391 22.1961C202.091 22.078 202.614 21.9135 202.96 21.7027C203.306 21.4834 203.516 21.1797 203.592 20.7917V20.7285C203.694 20.079 203.554 19.5772 203.175 19.2229C202.795 18.8687 202.226 18.6916 201.467 18.6916C200.657 18.6916 199.966 18.8687 199.392 19.2229C198.819 19.5772 198.418 20.0664 198.19 20.6905L192.522 20.4881C192.876 19.3073 193.484 18.253 194.344 17.3252C195.204 16.389 196.297 15.6552 197.621 15.1238C198.953 14.584 200.493 14.3141 202.239 14.3141C203.47 14.3141 204.583 14.4617 205.579 14.7569C206.574 15.0437 207.413 15.4654 208.096 16.0221C208.788 16.5703 209.281 17.2451 209.577 18.0463C209.872 18.8476 209.935 19.7627 209.766 20.7917L207.552 34H201.733L202.188 31.2926H202.036C201.581 31.9504 201.045 32.5071 200.429 32.9626C199.822 33.418 199.139 33.7596 198.38 33.9873C197.621 34.2151 196.79 34.3289 195.888 34.3289ZM198.494 30.2804C199.143 30.2804 199.759 30.1455 200.341 29.8756C200.923 29.6057 201.412 29.2346 201.809 28.7622C202.213 28.2815 202.471 27.7248 202.58 27.0922L202.871 25.2451C202.694 25.3379 202.471 25.4222 202.201 25.4981C201.931 25.574 201.644 25.6457 201.34 25.7132C201.037 25.7722 200.725 25.8313 200.404 25.8903C200.092 25.9409 199.793 25.9873 199.506 26.0295C198.899 26.1223 198.372 26.2657 197.924 26.4596C197.477 26.6536 197.119 26.9067 196.849 27.2187C196.588 27.5224 196.427 27.8851 196.368 28.3068C196.267 28.9394 196.415 29.4286 196.811 29.7744C197.208 30.1117 197.768 30.2804 198.494 30.2804Z" fill="#F55F02"/>
<path d="M79.2379 51H77.5087V41.7116H72.2601V40.3345H84.4712V41.7116H79.2379V51ZM94.2125 51H85.1537V42.9511H94.1054V44.2518H86.8828V46.2105H91.7642V47.4193H86.8828V49.6381H94.2125V51ZM105.43 51H98.9419C97.1822 51 96.4936 50.6481 96.4936 48.7965V45.1546C96.4936 43.3184 97.1975 42.9511 98.9419 42.9511H105.43V44.2671H98.9572C98.391 44.2671 98.2227 44.3589 98.2227 44.8639V49.0107C98.2227 49.5157 98.391 49.5922 98.9572 49.5922H105.43V51ZM117.865 51H116.136V47.4499H109.388V51H107.658V42.9511H109.388V46.1492H116.136V42.9511H117.865V51ZM131.201 51H129.885L123.826 46.1952C123.397 45.8585 122.678 45.2464 122.403 45.0016H122.357C122.372 45.4913 122.403 46.0115 122.403 46.9909V51H120.704V42.9511H122.02L128.141 47.8172C128.523 48.1232 129.243 48.7353 129.503 48.9495H129.549C129.533 48.414 129.503 47.8325 129.503 47.0062V42.9511H131.201V51ZM141.868 51.0765H136.451C134.661 51.0765 133.957 50.7246 133.957 48.8424V45.1087C133.957 43.2419 134.661 42.8746 136.451 42.8746H141.868C143.658 42.8746 144.362 43.2419 144.362 45.1087V48.8424C144.362 50.7246 143.689 51.0765 141.868 51.0765ZM142.648 49.0872V44.7874C142.648 44.2824 142.48 44.1906 141.899 44.1906H136.42C135.839 44.1906 135.686 44.2824 135.686 44.7874V49.0872C135.686 49.5922 135.854 49.6687 136.42 49.6687H141.899C142.48 49.6687 142.648 49.5922 142.648 49.0872ZM155.847 51H147.109V42.9511H148.838V49.5922H155.847V51ZM165.314 51.0765H159.897C158.107 51.0765 157.403 50.7246 157.403 48.8424V45.1087C157.403 43.2419 158.107 42.8746 159.897 42.8746H165.314C167.104 42.8746 167.808 43.2419 167.808 45.1087V48.8424C167.808 50.7246 167.135 51.0765 165.314 51.0765ZM166.095 49.0872V44.7874C166.095 44.2824 165.926 44.1906 165.345 44.1906H159.867C159.285 44.1906 159.132 44.2824 159.132 44.7874V49.0872C159.132 49.5922 159.3 49.6687 159.867 49.6687H165.345C165.926 49.6687 166.095 49.5922 166.095 49.0872ZM178.252 51.0765H172.912C171.152 51.0765 170.464 50.7246 170.464 48.873V45.1546C170.464 43.3184 171.152 42.9511 172.912 42.9511H180.517V44.2518H172.897C172.361 44.2518 172.193 44.3742 172.193 44.8486V49.1178C172.193 49.6075 172.346 49.7146 172.897 49.7146H178.237C178.849 49.7146 178.971 49.5922 178.971 49.1025V47.5723H176.722V46.4094H180.655V48.873C180.655 50.7246 180.012 51.0765 178.252 51.0765ZM185.166 51H183.437V42.9511H185.166V51ZM197.068 51H188.009V42.9511H196.961V44.2518H189.738V46.2105H194.62V47.4193H189.738V49.6381H197.068V51ZM208.729 47.909V48.8883C208.729 50.5868 208.224 51 206.388 51H199.242V49.6228H206.327C206.924 49.6228 207.061 49.531 207.061 49.026V48.0467C207.061 47.5264 206.924 47.4346 206.327 47.4346H201.69C200.038 47.4346 199.242 47.2051 199.242 45.7208V44.971C199.242 43.2419 199.946 42.9511 201.66 42.9511H208.27V44.2518H201.583C201.032 44.2671 200.895 44.3742 200.895 44.8639V45.5984C200.895 46.1033 201.063 46.1952 201.614 46.1952H206.312C208.025 46.1952 208.729 46.4706 208.729 47.909Z" fill="#144AA0"/>
</svg>
