<svg width="101" height="22" viewBox="0 0 101 22" fill="none" xmlns="http://www.w3.org/2000/svg">
<path fill-rule="evenodd" clip-rule="evenodd" d="M18.1855 21.9818C18.3775 21.9641 18.5707 21.9333 18.7577 21.8864C18.5027 21.9553 18.2402 21.9934 17.9736 21.9976L17.9251 22C17.8641 22 17.8076 21.9936 17.7513 21.9936C18.296 21.9617 18.8262 21.7827 19.2861 21.5015C19.774 21.2012 20.1777 20.7793 20.4829 20.3129L22.2944 17.3859L24.508 13.8544H24.5077L22.2937 17.3833L20.4836 20.3103C20.1768 20.7824 19.7725 21.2001 19.2843 21.5008C18.8268 21.7834 18.2962 21.9606 17.7493 21.9934C14.7894 21.8401 13.1385 17.8038 14.9446 14.9588L15.468 14.1345L15.7777 14.1248L15.4693 14.1343L21.9765 3.88281L28.097 3.78204L21.977 3.8817L23.3507 1.71807C24.0372 0.636469 25.1147 0 26.2589 0H33.7519L33.7497 0.00354306L33.7504 0.00265772L33.7115 0.0637801L29.0966 7.33289L23.8418 15.6094L22.6558 17.4816L22.6181 17.5392L22.3628 17.9391L20.9031 20.2381C20.8561 20.3121 20.8073 20.3842 20.7569 20.4542L20.7409 20.479C20.7386 20.4821 20.7352 20.4855 20.7316 20.4886L20.7266 20.4954L20.7312 20.489C20.728 20.4921 20.7244 20.495 20.7221 20.4983C20.6471 20.6068 20.5626 20.7027 20.4782 20.7986C20.173 21.1308 19.8023 21.412 19.4128 21.6293C19.4101 21.6293 19.409 21.6313 19.4085 21.633L19.4101 21.6324L19.4106 21.6319C19.8018 21.4123 20.1732 21.1326 20.4775 20.801C20.1633 21.1503 19.8018 21.4311 19.4101 21.6324L19.4085 21.633L19.4081 21.6357C19.1969 21.738 18.9811 21.8275 18.7557 21.8851C18.5686 21.9333 18.3769 21.9637 18.1855 21.9818ZM25.8914 12.3741L25.1545 13.5372L26.2212 11.8555L25.8914 12.3741ZM30.3655 5.32826L31.3802 3.72845L31.141 3.73487L31.7182 2.85303L33.7497 0.00354306L33.7519 0L31.7175 2.8506L31.1401 3.732L31.1397 3.73266L30.4484 4.78724L31.1401 3.7351L31.38 3.7289L30.2849 5.45493L30.3655 5.32826ZM33.709 0.0673232L31.9622 2.81472L30.5629 5.01778L31.964 2.81627L33.709 0.0673232ZM28.8868 7.65644L27.9028 9.20553L27.7503 9.44648L28.8868 7.65644Z" fill="#F55F02"/>
<path fill-rule="evenodd" clip-rule="evenodd" d="M40.2692 21.998C39.097 21.998 37.993 21.3458 37.2898 20.2381L29.0965 7.33289L31.8694 2.96509L31.8718 2.96088L33.752 0L43.2483 14.9588C45.0898 17.859 43.338 21.998 40.2692 21.998Z" fill="#09357D"/>
<path fill-rule="evenodd" clip-rule="evenodd" d="M26.3032 21.998C25.1311 21.998 24.0273 21.3458 23.3241 20.2381L22.1135 18.3318L24.9991 13.787L26.331 11.7138L26.774 11.0071L29.2828 14.9588C31.1241 17.859 29.3725 21.998 26.3032 21.998ZM17.4582 10.9991L15.131 7.33289L19.7863 0L22.1135 3.66622L17.4582 10.9991Z" fill="#09357D"/>
<path fill-rule="evenodd" clip-rule="evenodd" d="M4.22004 21.9818C4.41183 21.9641 4.6052 21.9333 4.79202 21.8864C4.53698 21.9553 4.27449 21.9934 4.00793 21.9976L3.95935 22C3.89836 22 3.84212 21.9936 3.78587 21.9936C4.33028 21.9617 4.86047 21.7827 5.3204 21.5015C5.80856 21.2012 6.21224 20.7793 6.51721 20.3129L8.32868 17.3859L10.5423 13.8544H10.542L8.32823 17.3833L6.51788 20.3103C6.21111 20.7824 5.80675 21.2001 5.31881 21.5008C4.86114 21.7834 4.33051 21.9606 3.78361 21.9934C0.823661 21.8401 -0.827201 17.8038 0.978856 14.9588L1.50226 14.1345L1.81197 14.1248L1.50362 14.1343L8.01085 3.88281L14.1313 3.78204L8.01129 3.8817L9.38498 1.71807C10.0715 0.636469 11.149 0 12.2934 0H19.7862L19.784 0.00354306L19.7847 0.00265772L19.7458 0.0637801L15.1309 7.33289L9.87631 15.6094L8.69012 17.4816L8.65262 17.5392L8.39713 17.9391L6.9376 20.2381C6.89039 20.3121 6.84159 20.3842 6.79122 20.4542L6.77518 20.479C6.77292 20.4821 6.76953 20.4855 6.76614 20.4886L6.76095 20.4954L6.76569 20.489C6.7623 20.4921 6.75892 20.495 6.75666 20.4983C6.68143 20.6068 6.59694 20.7027 6.51246 20.7986C6.20749 21.1308 5.83658 21.412 5.44713 21.6293C5.44464 21.6293 5.44351 21.6313 5.44306 21.633L5.44441 21.6324L5.44509 21.6319C5.83612 21.4123 6.20772 21.1326 6.51178 20.801C6.19778 21.1503 5.83612 21.4311 5.44441 21.6324L5.44306 21.633L5.4426 21.6357C5.23139 21.738 5.01543 21.8275 4.79021 21.8851C4.60294 21.9333 4.41138 21.9637 4.22004 21.9818ZM11.9259 12.3741L11.189 13.5372L12.2555 11.8555L11.9259 12.3741ZM16.4 5.32826L17.4145 3.72845L17.1753 3.73487L17.7525 2.85303L19.784 0.00354306L19.7862 0L17.752 2.8506L17.1744 3.732L17.1742 3.73266L16.4827 4.78724L17.1744 3.7351L17.4143 3.7289L16.3192 5.45493L16.4 5.32826ZM19.7436 0.0673232L17.9965 2.81472L16.5975 5.01778L17.9983 2.81627L19.7436 0.0673232ZM14.9211 7.65644L13.9371 9.20553L13.7846 9.44648L14.9211 7.65644Z" fill="#124699"/>
<path d="M50.6988 3.07913H53.369L54.7193 8.6024H54.8239L58.0037 3.07913H60.6738L59.1928 12H57.0933L58.0037 6.52029H57.9296L54.8892 11.9434H53.5519L52.3149 6.4898H52.2408L51.3174 12H49.2178L50.6988 3.07913ZM61.4307 14.509C61.1751 14.509 60.937 14.4887 60.7163 14.448C60.4985 14.4103 60.3127 14.3594 60.1587 14.2956L60.8905 12.7492C61.0851 12.8189 61.2637 12.8581 61.4263 12.8668C61.5918 12.8784 61.7399 12.8509 61.8706 12.7841C62.0042 12.7202 62.1203 12.6055 62.2191 12.4399L62.341 12.2352L61.117 5.30935H63.2688L63.7044 10.0878H63.7741L65.8214 5.30935H68.1431L64.4101 12.6403C64.2213 13.0062 63.9934 13.33 63.7262 13.6117C63.4591 13.8934 63.1367 14.1126 62.7592 14.2694C62.3846 14.4291 61.9418 14.509 61.4307 14.509ZM76.8788 6.3112H74.727C74.7386 6.0847 74.7169 5.88287 74.6617 5.70573C74.6065 5.52569 74.5194 5.37178 74.4003 5.24401C74.2813 5.11333 74.1332 5.0146 73.956 4.94781C73.7789 4.88102 73.5727 4.84762 73.3375 4.84762C72.8874 4.84762 72.4794 4.95943 72.1135 5.18303C71.7476 5.40663 71.4412 5.72897 71.1944 6.15004C70.9476 6.57111 70.7748 7.07639 70.676 7.66589C70.586 8.23506 70.5875 8.70985 70.6804 9.09026C70.7762 9.47068 70.9534 9.75672 71.2118 9.94837C71.4703 10.1371 71.7984 10.2315 72.1962 10.2315C72.4547 10.2315 72.6943 10.201 72.915 10.14C73.1386 10.0761 73.3404 9.98467 73.5204 9.86561C73.7005 9.74655 73.8558 9.60281 73.9865 9.43438C74.1201 9.26305 74.2232 9.07284 74.2958 8.86376H76.465C76.3576 9.25579 76.1804 9.64637 75.9336 10.0355C75.6897 10.4217 75.3819 10.7716 75.0102 11.0853C74.6385 11.3989 74.2072 11.6501 73.7165 11.8388C73.2257 12.0276 72.6798 12.122 72.0786 12.122C71.2568 12.122 70.5483 11.9376 69.953 11.5688C69.3606 11.2 68.9322 10.6656 68.668 9.9658C68.4066 9.26305 68.3573 8.4122 68.5199 7.41325C68.6796 6.44624 68.9947 5.63168 69.4651 4.96959C69.9384 4.30749 70.5134 3.80657 71.19 3.46681C71.8696 3.12705 72.5941 2.95717 73.3636 2.95717C73.9212 2.95717 74.4221 3.03267 74.8664 3.18367C75.3136 3.33177 75.6926 3.54957 76.0033 3.83706C76.314 4.12164 76.5449 4.47157 76.6959 4.88683C76.8498 5.30209 76.9108 5.77688 76.8788 6.3112ZM81.972 9.11204L82.6079 5.30935H84.7336L83.6185 12H81.5886L81.7934 10.7542H81.7237C81.5175 11.1637 81.214 11.4889 80.8133 11.7299C80.4126 11.9681 79.961 12.0871 79.4586 12.0871C79.0027 12.0871 78.6194 11.9826 78.3087 11.7735C77.9979 11.5644 77.7772 11.2726 77.6466 10.898C77.5188 10.5204 77.4956 10.0791 77.5769 9.57377L78.2912 5.30935H80.4213L79.7809 9.1556C79.7258 9.51859 79.7737 9.80463 79.9247 10.0137C80.0786 10.2228 80.3196 10.3273 80.6478 10.3273C80.8598 10.3273 81.0587 10.2809 81.2445 10.1879C81.4304 10.0921 81.5872 9.95418 81.715 9.77414C81.8456 9.59119 81.9313 9.37049 81.972 9.11204ZM84.9743 12L86.0894 5.30935H88.1584L87.9537 6.529H88.0234C88.2179 6.0876 88.472 5.75946 88.7857 5.54457C89.0993 5.32677 89.4391 5.21788 89.8049 5.21788C89.9037 5.21788 90.0024 5.22514 90.1011 5.23965C90.2028 5.25127 90.2986 5.26869 90.3886 5.29193L90.075 7.14754C89.9763 7.10978 89.8471 7.0822 89.6873 7.06477C89.5276 7.04445 89.3824 7.03428 89.2517 7.03428C88.9991 7.03428 88.7639 7.09091 88.5461 7.20416C88.3312 7.31451 88.1483 7.46987 87.9972 7.67024C87.8491 7.86771 87.7519 8.10002 87.7054 8.36719L87.1043 12H84.9743ZM91.7542 12.1133C91.3302 12.1133 90.9643 12.0421 90.6565 11.8998C90.3516 11.7546 90.128 11.5354 89.9857 11.2421C89.8463 10.9488 89.8129 10.5829 89.8855 10.1444C89.9494 9.77269 90.067 9.46051 90.2384 9.20787C90.4126 8.95233 90.626 8.7447 90.8787 8.58498C91.1342 8.42526 91.4188 8.3033 91.7324 8.21909C92.0461 8.13487 92.3742 8.07824 92.7169 8.04921C93.1002 8.01436 93.4109 7.97661 93.649 7.93595C93.89 7.8953 94.0701 7.83867 94.1892 7.76607C94.3082 7.69057 94.3808 7.58603 94.4069 7.45245V7.43067C94.4418 7.20707 94.3939 7.03428 94.2632 6.91232C94.1325 6.79035 93.9365 6.72937 93.6752 6.72937C93.3964 6.72937 93.1583 6.79035 92.9608 6.91232C92.7633 7.03428 92.6254 7.20271 92.547 7.4176L90.5955 7.34791C90.7175 6.94136 90.9266 6.57837 91.2228 6.25893C91.519 5.9366 91.895 5.68396 92.351 5.50101C92.8098 5.31516 93.3398 5.22223 93.9409 5.22223C94.3648 5.22223 94.7482 5.27305 95.0908 5.37469C95.4335 5.47342 95.7224 5.61862 95.9576 5.81028C96.1958 5.99903 96.3656 6.23135 96.4673 6.50722C96.5689 6.78309 96.5907 7.09817 96.5326 7.45245L95.7703 12H93.7666L93.9234 11.0678H93.8712C93.7144 11.2943 93.53 11.486 93.318 11.6428C93.1089 11.7996 92.8737 11.9172 92.6123 11.9956C92.351 12.0741 92.0649 12.1133 91.7542 12.1133ZM92.6515 10.7194C92.8751 10.7194 93.0871 10.6729 93.2875 10.58C93.4879 10.4871 93.6563 10.3593 93.7928 10.1967C93.9322 10.0311 94.0207 9.83948 94.0585 9.62168L94.1587 8.98572C94.0977 9.01767 94.0207 9.0467 93.9278 9.07284C93.8349 9.09898 93.7361 9.12366 93.6316 9.14689C93.5271 9.16722 93.4196 9.18755 93.3093 9.20787C93.2018 9.2253 93.0987 9.24127 93 9.25579C92.7909 9.28773 92.6094 9.3371 92.4555 9.40389C92.3016 9.47068 92.1782 9.5578 92.0853 9.66524C91.9952 9.76978 91.9401 9.89465 91.9197 10.0398C91.8849 10.2576 91.9357 10.4261 92.0722 10.5451C92.2087 10.6613 92.4018 10.7194 92.6515 10.7194Z" fill="#F55F02"/>
<path d="M48.9348 21H48.2576V17.3624H46.2021V16.8231H50.9843V17.3624H48.9348V21ZM54.7992 21H51.2516V17.8478H54.7573V18.3572H51.9287V19.1243H53.8404V19.5977H51.9287V20.4666H54.7992V21ZM59.1923 21H56.6514C55.9622 21 55.6926 20.8622 55.6926 20.1371V18.7108C55.6926 17.9917 55.9682 17.8478 56.6514 17.8478H59.1923V18.3632H56.6574C56.4357 18.3632 56.3697 18.3992 56.3697 18.5969V20.2209C56.3697 20.4187 56.4357 20.4487 56.6574 20.4487H59.1923V21ZM64.0622 21H63.385V19.6097H60.7422V21H60.065V17.8478H60.7422V19.1003H63.385V17.8478H64.0622V21ZM69.285 21H68.7697L66.3966 19.1183C66.2288 18.9865 65.9471 18.7467 65.8392 18.6509H65.8213C65.8273 18.8426 65.8392 19.0464 65.8392 19.4299V21H65.174V17.8478H65.6894L68.0865 19.7535C68.2363 19.8734 68.518 20.1131 68.6198 20.197H68.6378C68.6318 19.9872 68.6198 19.7595 68.6198 19.4359V17.8478H69.285V21ZM73.4624 21.03H71.341C70.6398 21.03 70.3641 20.8921 70.3641 20.155V18.6928C70.3641 17.9617 70.6398 17.8179 71.341 17.8179H73.4624C74.1635 17.8179 74.4392 17.9617 74.4392 18.6928V20.155C74.4392 20.8921 74.1755 21.03 73.4624 21.03ZM73.768 20.2509V18.567C73.768 18.3692 73.7021 18.3332 73.4744 18.3332H71.329C71.1012 18.3332 71.0413 18.3692 71.0413 18.567V20.2509C71.0413 20.4487 71.1072 20.4786 71.329 20.4786H73.4744C73.7021 20.4786 73.768 20.4487 73.768 20.2509ZM78.9368 21H75.515V17.8478H76.1921V20.4487H78.9368V21ZM82.6445 21.03H80.5231C79.822 21.03 79.5463 20.8921 79.5463 20.155V18.6928C79.5463 17.9617 79.822 17.8179 80.5231 17.8179H82.6445C83.3457 17.8179 83.6214 17.9617 83.6214 18.6928V20.155C83.6214 20.8921 83.3577 21.03 82.6445 21.03ZM82.9502 20.2509V18.567C82.9502 18.3692 82.8843 18.3332 82.6565 18.3332H80.5111C80.2834 18.3332 80.2235 18.3692 80.2235 18.567V20.2509C80.2235 20.4487 80.2894 20.4786 80.5111 20.4786H82.6565C82.8843 20.4786 82.9502 20.4487 82.9502 20.2509ZM87.7115 21.03H85.62C84.9309 21.03 84.6612 20.8921 84.6612 20.167V18.7108C84.6612 17.9917 84.9309 17.8478 85.62 17.8478H88.5984V18.3572H85.614C85.4043 18.3572 85.3384 18.4052 85.3384 18.5909V20.2629C85.3384 20.4547 85.3983 20.4966 85.614 20.4966H87.7055C87.9452 20.4966 87.9931 20.4487 87.9931 20.2569V19.6576H87.1122V19.2022H88.6523V20.167C88.6523 20.8921 88.4006 21.03 87.7115 21.03ZM90.4189 21H89.7418V17.8478H90.4189V21ZM95.0802 21H91.5326V17.8478H95.0383V18.3572H92.2097V19.1243H94.1214V19.5977H92.2097V20.4666H95.0802V21ZM99.6471 19.7895V20.173C99.6471 20.8382 99.4493 21 98.7302 21H95.9316V20.4607H98.7062C98.94 20.4607 98.9939 20.4247 98.9939 20.2269V19.8434C98.9939 19.6397 98.94 19.6037 98.7062 19.6037H96.8905C96.2432 19.6037 95.9316 19.5138 95.9316 18.9325V18.6389C95.9316 17.9617 96.2073 17.8478 96.8785 17.8478H99.4673V18.3572H96.8485C96.6328 18.3632 96.5788 18.4052 96.5788 18.5969V18.8846C96.5788 19.0823 96.6448 19.1183 96.8605 19.1183H98.7003C99.3714 19.1183 99.6471 19.2262 99.6471 19.7895Z" fill="#144AA0"/>
</svg>
