<svg width="24" height="24" viewBox="0 0 24 24" fill="none" xmlns="http://www.w3.org/2000/svg">
<path d="M20.4377 23.0027H3.56742C2.15077 23.0027 1.00244 21.8544 1.00244 20.4377V3.56764C1.00244 2.151 2.15077 1.00269 3.56742 1.00269H20.4375C21.8541 1.00269 23.0024 2.151 23.0024 3.56764V20.4375C23.0027 21.8544 21.8544 23.0027 20.4377 23.0027Z" fill="black" stroke="white" stroke-width="0.0280377" stroke-miterlimit="10"/>
<path d="M4.38224 4.83551L10.2953 12.7419L4.34497 19.1699H5.68426L10.8939 13.542L15.103 19.1699H19.6603L13.4144 10.8189L18.953 4.83551H17.6137L12.8161 10.0186L8.93958 4.83551H4.38224ZM6.35172 5.82217H8.44535L17.6906 18.1835H15.597L6.35172 5.82217Z" fill="white"/>
</svg>
